<?xml version="1.0" standalone="no"?>
<!DOCTYPE svg PUBLIC "-//W3C//DTD SVG 20010904//EN"
 "http://www.w3.org/TR/2001/REC-SVG-20010904/DTD/svg10.dtd">
<svg version="1.0" xmlns="http://www.w3.org/2000/svg"
 width="256.000000pt" height="256.000000pt" viewBox="0 0 256.000000 256.000000"
 preserveAspectRatio="xMidYMid meet">
<metadata>
Created by potrace 1.14, written by Peter Selinger 2001-2017
</metadata>
<g transform="translate(0.000000,256.000000) scale(0.100000,-0.100000)"
fill="#000000" stroke="none">
<path d="M761 2499 c-58 -54 -101 -216 -110 -413 l-6 -148 -105 -37 c-113 -40
-167 -68 -221 -116 -74 -66 -95 -116 -69 -166 12 -22 61 -49 90 -49 11 0 20
-2 20 -4 0 -3 -15 -28 -32 -57 -28 -44 -33 -63 -35 -118 -1 -58 -7 -77 -51
-161 -82 -156 -101 -253 -62 -318 11 -18 31 -38 45 -44 24 -11 25 -15 25 -97
0 -135 18 -259 43 -305 29 -53 81 -74 140 -59 40 11 43 10 85 -25 158 -134
358 -222 566 -251 110 -16 309 -14 409 4 219 38 369 109 553 260 30 24 34 25
77 14 64 -18 114 3 144 57 25 46 43 170 43 305 0 82 1 86 25 97 14 6 34 26 45
44 39 65 20 162 -64 323 -46 88 -52 106 -48 148 8 98 -79 210 -245 314 -40 25
-73 48 -73 51 0 2 14 48 31 101 44 138 59 227 59 357 0 185 -23 244 -97 244
-39 0 -25 13 -227 -213 l-149 -168 -26 18 c-50 33 -95 53 -122 53 -36 0 -89
-45 -89 -76 0 -13 -3 -24 -7 -24 -5 0 -59 12 -121 27 -89 22 -116 32 -128 50
-8 13 -56 102 -105 198 -50 96 -100 182 -112 190 -30 21 -69 19 -96 -6z m106
-147 c14 -9 173 -327 173 -347 0 -67 -207 -149 -292 -116 -27 10 -28 12 -28
93 0 101 14 192 42 277 28 87 64 119 105 93z m1041 -102 c21 -40 8 -186 -28
-315 -17 -60 -37 -116 -44 -124 -34 -34 -181 33 -219 99 -13 24 -18 44 -14 60
4 14 61 89 128 168 129 152 149 165 177 112z m-500 -546 c279 -57 465 -287
424 -526 -18 -101 -56 -172 -133 -250 -313 -311 -900 -160 -971 250 -23 136
22 263 131 373 137 138 344 195 549 153z m-132 -1296 c-12 -62 -83 -128 -136
-128 -30 0 -76 49 -89 96 -20 72 -25 69 110 66 l121 -3 -6 -31z"/>
<path d="M1237 1473 c-4 -3 3 -17 15 -30 33 -35 31 -95 -5 -130 -23 -23 -36
-28 -77 -27 -48 0 -50 0 -50 -28 0 -37 25 -96 53 -126 106 -114 267 -24 267
148 0 82 -39 153 -102 186 -28 15 -90 19 -101 7z"/>
</g>
</svg>
